g cua.001
v -0.00122442 -0.002047771 -0.002841331
v -0.00122442 -0.002047771 0.002841331
v 0.001286461 0.002011739 0.002841331
v 0.001286461 0.002011739 -0.002841331
v 0.00122442 0.00204777 -0.002841331
v 0.00122442 0.00204777 0.002841331
v -0.001286461 -0.00201174 0.002841331
v -0.001286461 -0.00201174 -0.002841331
v -0.00122442 -0.002047771 -0.002841331
v 0.001286461 0.002011739 -0.002841331
v 0.00122442 0.00204777 -0.002841331
v -0.001286461 -0.00201174 -0.002841331
v -0.001286461 -0.00201174 -0.002841331
v -0.001286461 -0.00201174 0.002841331
v -0.00122442 -0.002047771 0.002841331
v -0.00122442 -0.002047771 -0.002841331
v -0.00122442 -0.002047771 0.002841331
v -0.001286461 -0.00201174 0.002841331
v 0.00122442 0.00204777 0.002841331
v 0.001286461 0.002011739 0.002841331
v 0.001286461 0.002011739 -0.002841331
v 0.001286461 0.002011739 0.002841331
v 0.00122442 0.00204777 0.002841331
v 0.00122442 0.00204777 -0.002841331
vt 7.450581E-08 0
vt 0 0.9999999
vt 0.8399717 1
vt 0.8399718 7.357448E-08
vt 0 0
vt 0 0.9999999
vt 0.8399718 0.9999999
vt 0.8399718 8.522198E-08
vt 1.497884 1.725808
vt 2.04859 1.505882
vt 2.04859 1.505882
vt 1.497884 1.725808
vt 1.497884 1.725808
vt 1.497884 1.725808
vt 1.497884 1.725808
vt 1.497884 1.725808
vt 1.497884 1.725808
vt 1.497884 1.725808
vt 2.04859 1.505882
vt 2.04859 1.505882
vt 2.04859 1.505882
vt 2.04859 1.505882
vt 2.04859 1.505882
vt 2.04859 1.505882
vn 0.8504666 -0.5260291 0
vn 0.8504666 -0.5260291 0
vn 0.8504666 -0.5260291 0
vn 0.8504666 -0.5260291 0
vn -0.8504664 0.5260292 0
vn -0.8504664 0.5260292 0
vn -0.8504664 0.5260292 0
vn -0.8504664 0.5260292 0
vn 4.761007E-07 0 -1
vn 4.761007E-07 0 -1
vn 4.761007E-07 0 -1
vn 4.761007E-07 0 -1
vn -0.5022085 -0.8647466 0
vn -0.5022085 -0.8647466 0
vn -0.5022085 -0.8647466 0
vn -0.5022085 -0.8647466 0
vn 0 0 1
vn 0 0 1
vn 0 0 1
vn 0 0 1
vn 0.5022123 0.8647442 0
vn 0.5022123 0.8647442 0
vn 0.5022123 0.8647442 0
vn 0.5022123 0.8647442 0
g cua.001_0
f 3/3/3 2/2/2 1/1/1
f 4/4/4 3/3/3 1/1/1
f 7/7/7 6/6/6 5/5/5
f 8/8/8 7/7/7 5/5/5
g cua.001_1
f 11/11/11 10/10/10 9/9/9
f 12/12/12 11/11/11 9/9/9
f 15/15/15 14/14/14 13/13/13
f 16/16/16 15/15/15 13/13/13
f 19/19/19 18/18/18 17/17/17
f 20/20/20 19/19/19 17/17/17
f 23/23/23 22/22/22 21/21/21
f 24/24/24 23/23/23 21/21/21
