g nha  game day quai.001
v 0.007764936 0.01336166 0.01031261
v 0.01149373 0.007764936 0.01031261
v 0.01149373 0.007764936 8.073926E-05
v 0.007764936 0.01336166 8.073926E-05
v 0.01149373 -0.007764936 8.073926E-05
v 0.007764936 -0.01105411 8.073926E-05
v -0.007764936 -0.01105411 8.073926E-05
v -0.01122661 -0.007764936 8.073926E-05
v -0.01122661 -0.001941234 8.073926E-05
v 0.01149373 -0.001941234 8.073926E-05
v 0.01149373 0.007764936 8.073926E-05
v -0.01122661 0.007764936 8.073926E-05
v -0.01076599 0.008509648 8.073926E-05
v 0.007764936 0.01336166 8.073926E-05
v -0.008255111 0.01256916 8.073926E-05
v -0.007764936 0.01336166 8.073926E-05
v 0.01149373 -0.001941234 8.073926E-05
v 0.01149373 -0.001941234 0.0005797712
v 0.01149373 -0.001941234 0.005226115
v 0.01149373 -0.002032129 0.00533687
v 0.01149373 -0.006174099 0.008506858
v 0.01149373 -0.006001055 0.008523901
v 0.01149373 -0.002114096 0.00549022
v 0.01149373 -0.005834661 0.008574376
v 0.01149373 -0.002164571 0.005656614
v 0.01149373 -0.005681311 0.008656343
v 0.01149373 -0.002181614 0.005829658
v 0.01149373 -0.0055469 0.008766652
v 0.01149373 -0.002164571 0.006002702
v 0.01149373 -0.005436589 0.008901064
v 0.01149373 -0.002114096 0.006169096
v 0.01149373 -0.005354622 0.009054414
v 0.01149373 -0.002032128 0.006322446
v 0.01149373 -0.005304147 0.009220809
v 0.01149373 -0.001941234 0.006433201
v 0.01149373 -0.005287104 0.009393853
v 0.01149373 -0.001941234 0.01031261
v 0.01149373 -0.005304147 0.009566897
v 0.01149373 -0.001921819 0.006456858
v 0.01149373 -0.005354622 0.009733291
v 0.01149373 -0.001787407 0.006567168
v 0.01149373 -0.005436589 0.009886641
v 0.01149373 -0.001634057 0.006649135
v 0.01149373 -0.005546899 0.01002105
v 0.01149373 -0.001467663 0.00669961
v 0.01149373 -0.005681311 0.01013136
v 0.01149373 -0.001294619 0.006716653
v 0.01149373 -0.005834661 0.01021333
v 0.01149373 -0.006001055 0.01026381
v 0.01149373 -0.001121575 0.00669961
v 0.01149373 -0.00597401 0.01031261
v 0.01149373 -0.006174099 0.01028085
v 0.01149373 -0.006155706 0.01031261
v 0.01149373 -0.006347144 0.0102638
v 0.01149373 -0.006356587 0.01031261
v 0.01149373 -0.006513538 0.01021333
v 0.01149373 -0.006530379 0.01031261
v 0.01149373 -0.006666887 0.01013136
v 0.01149373 -0.007764936 0.01031261
v 0.01149373 -0.0068013 0.01002105
v 0.01149373 -0.006911609 0.009886641
v 0.01149373 -0.006993576 0.009733291
v 0.01149373 -0.007044051 0.009566897
v 0.01149373 -0.007061095 0.009393853
v 0.01149373 -0.007044051 0.009220809
v 0.01149373 -0.006993576 0.009054414
v 0.01149373 -0.007764936 8.073926E-05
v 0.01149373 -0.006911609 0.008901065
v 0.01149373 -0.0068013 0.008766652
v 0.01149373 -0.006666887 0.008656343
v 0.01149373 -0.006513538 0.008574376
v 0.01149373 -0.006347144 0.008523901
v 0.01149373 0.005717367 0.00267786
v 0.01149373 0.005564017 0.002759827
v 0.01149373 0.005883761 0.002627385
v 0.01149373 0.005429605 0.002870136
v 0.01149373 0.007764936 8.073926E-05
v 0.01149373 0.006056805 0.002610341
v 0.01149373 0.00622985 0.002627385
v 0.01149373 0.006396243 0.00267786
v 0.01149373 0.006549593 0.002759827
v 0.01149373 0.006684005 0.002870136
v 0.01149373 0.006794314 0.003004548
v 0.01149373 0.006876282 0.003157898
v 0.01149373 0.006926757 0.003324292
v 0.01149373 0.0069438 0.003497337
v 0.01149373 0.006926757 0.003670381
v 0.01149373 0.007764936 0.01031261
v 0.01149373 0.006876282 0.003836775
v 0.01149373 0.006794315 0.003990124
v 0.01149373 0.006684006 0.004124537
v 0.01149373 0.006549593 0.004234846
v 0.01149373 0.006396243 0.004316813
v 0.01149373 0.00622985 0.004367288
v 0.01149373 0.004667437 0.008594712
v 0.01149373 0.006056805 0.004384331
v 0.01149373 0.005883761 0.004367288
v 0.01149373 0.004717912 0.008761106
v 0.01149373 0.004734956 0.00893415
v 0.01149373 0.004717912 0.009107194
v 0.01149373 0.004667437 0.009273589
v 0.01149373 0.00458547 0.008441362
v 0.01149373 0.005717367 0.004316813
v 0.01149373 0.004475161 0.008306949
v 0.01149373 0.005564017 0.004234846
v 0.01149373 0.004340749 0.008196641
v 0.01149373 0.005429605 0.004124537
v 0.01149373 0.004187399 0.008114673
v 0.01149373 0.00458547 0.009426938
v 0.01149373 0.005319295 0.003990124
v 0.01149373 0.004475161 0.009561351
v 0.01149373 0.004021005 0.008064198
v 0.01149373 0.004340749 0.00967166
v 0.01149373 0.00384796 0.008047155
v 0.01149373 0.004187399 0.009753627
v 0.01149373 0.004021005 0.009804102
v 0.01149373 0.00384796 0.009821145
v 0.01149373 0.003674916 0.009804102
v 0.01149373 0.003508522 0.009753627
v 0.01149373 0.003674916 0.008064198
v 0.01149373 0.003355172 0.00967166
v 0.01149373 0.00322076 0.009561351
v 0.01149373 0.003110451 0.009426938
v 0.01149373 0.003028484 0.009273589
v 0.01149373 0.002978009 0.009107194
v 0.01149373 0.002960965 0.00893415
v 0.01149373 0.002978009 0.008761106
v 0.01149373 -0.0009551805 0.006649135
v 0.01149373 0.003028484 0.008594712
v 0.01149373 -0.0008018306 0.006567168
v 0.01149373 0.003110451 0.008441363
v 0.01149373 -0.0006674185 0.006456858
v 0.01149373 0.00322076 0.00830695
v 0.01149373 -0.0005571091 0.006322446
v 0.01149373 0.003355172 0.008196641
v 0.01149373 -0.0004751423 0.006169096
v 0.01149373 -0.000424667 0.006002702
v 0.01149373 0.003508522 0.008114673
v 0.01149373 -0.0004076237 0.005829658
v 0.01149373 -0.000424667 0.005656614
v 0.01149373 0.005237328 0.003836775
v 0.01149373 -0.0004751422 0.00549022
v 0.01149373 0.005186853 0.003670381
v 0.01149373 -0.0005571094 0.005336869
v 0.01149373 0.00516981 0.003497337
v 0.01149373 -0.0006674185 0.005202457
v 0.01149373 0.005186853 0.003324292
v 0.01149373 -0.0008018306 0.005092148
v 0.01149373 -0.0003811538 0.00483848
v 0.01149373 -0.0009551805 0.005010181
v 0.01149373 0.005237328 0.003157898
v 0.01149373 0.005319295 0.003004548
v 0.01149373 -0.001121575 0.004959706
v 0.01149373 -0.0004736936 0.004763039
v 0.01149373 -0.001294619 0.004942663
v 0.01149373 -0.001467663 0.004959706
v 0.01149373 -0.001917601 0.0004599903
v 0.01149373 -0.001634057 0.005010181
v 0.01149373 -0.001927649 0.0005233064
v 0.01149373 -0.001787407 0.005092148
v 0.01149373 -0.001939368 0.0005730694
v 0.01149373 -0.001941234 0.0005797712
v 0.01149373 -0.001921819 0.005202458
v -0.01122661 -0.002307268 0.001035671
v -0.01122661 -0.001941234 8.073926E-05
v -0.01122661 -0.002361822 0.001143187
v 0.007764936 -0.01105411 0.01031261
v 0.007764936 -0.01105411 8.073926E-05
v 0.01149373 -0.007764936 8.073926E-05
v 0.01149373 -0.007764936 0.01031261
vt 0 1
vt 0.6572716 1
vt 0.6572717 5.7742E-08
vt 1.192093E-07 0
vt 2.169657 -0.8380843
vt 1.610222 -1.331562
vt -0.7197396 -1.331562
vt -1.239098 -0.8380848
vt -1.239098 0.0356513
vt 2.169657 0.03565118
vt 2.169657 1.491877
vt -1.239097 1.491877
vt -1.169988 1.603611
vt 1.610223 2.331559
vt -0.7932769 2.212663
vt -0.7197354 2.331562
vt 0.6132559 4.842877E-08
vt 0.613256 0.02850126
vt 0.6132559 0.2938679
vt 0.6184472 0.3001934
vt 0.8550075 0.481241
vt 0.8451244 0.4822143
vt 0.6231285 0.3089517
vt 0.8356212 0.4850973
vt 0.6260113 0.3184549
vt 0.8268631 0.4897785
vt 0.6269848 0.3283381
vt 0.8191863 0.4960786
vt 0.6260113 0.3382211
vt 0.8128861 0.5037553
vt 0.6231285 0.3477243
vt 0.8082048 0.5125135
vt 0.6184472 0.3564826
vt 0.805322 0.5220168
vt 0.6132559 0.3628082
vt 0.8043486 0.5318999
vt 0.6132559 0.5843728
vt 0.8053219 0.5417829
vt 0.6121471 0.3641594
vt 0.8082047 0.5512862
vt 0.6044702 0.3704594
vt 0.8128862 0.5600445
vt 0.5957121 0.3751407
vt 0.8191863 0.5677213
vt 0.5862088 0.3780236
vt 0.826863 0.5740214
vt 0.5763257 0.378997
vt 0.8356211 0.5787026
vt 0.8451244 0.5815855
vt 0.5664427 0.3780236
vt 0.8435798 0.5843729
vt 0.8550074 0.5825589
vt 0.8539569 0.5843729
vt 0.8648905 0.5815855
vt 0.8654299 0.5843729
vt 0.8743939 0.5787028
vt 0.8753557 0.5843729
vt 0.883152 0.5740213
vt 0.9458649 0.5843729
vt 0.8908289 0.5677212
vt 0.8971289 0.5600445
vt 0.9018102 0.5512862
vt 0.9046929 0.541783
vt 0.9056664 0.5318998
vt 0.9046929 0.5220167
vt 0.9018101 0.5125136
vt 0.945865 7.729977E-08
vt 0.8971289 0.5037552
vt 0.8908287 0.4960786
vt 0.8831522 0.4897785
vt 0.8743938 0.4850971
vt 0.8648904 0.4822143
vt 0.1758503 0.1483293
vt 0.1846086 0.1530108
vt 0.166347 0.1454465
vt 0.1922852 0.1593109
vt 0.05890751 0
vt 0.1564639 0.1444731
vt 0.1465809 0.1454465
vt 0.1370776 0.1483293
vt 0.1283194 0.1530108
vt 0.1206427 0.1593108
vt 0.1143426 0.1669875
vt 0.1096612 0.1757458
vt 0.1067784 0.185249
vt 0.105805 0.1951321
vt 0.1067784 0.2050152
vt 0.05890745 0.5843728
vt 0.1096612 0.2145185
vt 0.1143426 0.2232767
vt 0.1206426 0.2309534
vt 0.1283193 0.2372534
vt 0.1370776 0.2419348
vt 0.1465809 0.2448177
vt 0.2358149 0.4862585
vt 0.156464 0.2457911
vt 0.1663471 0.2448177
vt 0.2329321 0.4957617
vt 0.2319587 0.5056449
vt 0.2329321 0.515528
vt 0.2358149 0.5250312
vt 0.2404963 0.4775003
vt 0.1758503 0.2419349
vt 0.2467964 0.4698236
vt 0.1846085 0.2372534
vt 0.2544731 0.4635235
vt 0.1922853 0.2309534
vt 0.2632313 0.458842
vt 0.2404962 0.5337894
vt 0.1985854 0.2232767
vt 0.2467963 0.5414661
vt 0.2727346 0.4559593
vt 0.254473 0.5477662
vt 0.2826177 0.4549859
vt 0.2632313 0.5524477
vt 0.2727346 0.5553304
vt 0.2826177 0.5563038
vt 0.2925007 0.5553304
vt 0.302004 0.5524476
vt 0.2925008 0.4559593
vt 0.3107623 0.5477662
vt 0.318439 0.5414661
vt 0.3247391 0.5337895
vt 0.3294204 0.5250312
vt 0.3323032 0.5155279
vt 0.3332766 0.5056448
vt 0.3323032 0.4957618
vt 0.5569393 0.3751408
vt 0.3294204 0.4862585
vt 0.5481814 0.3704595
vt 0.324739 0.4775002
vt 0.5405045 0.3641593
vt 0.318439 0.4698235
vt 0.5342042 0.3564825
vt 0.3107623 0.4635234
vt 0.5295232 0.3477243
vt 0.5266405 0.3382212
vt 0.302004 0.4588421
vt 0.5256668 0.3283379
vt 0.5266404 0.318455
vt 0.2032667 0.2145185
vt 0.5295228 0.3089516
vt 0.2061495 0.2050152
vt 0.5342043 0.3001934
vt 0.207123 0.1951321
vt 0.5405045 0.2925166
vt 0.2061495 0.1852491
vt 0.5481813 0.2862166
vt 0.5241551 0.2717289
vt 0.5569395 0.2815353
vt 0.2032667 0.1757458
vt 0.1985853 0.1669874
vt 0.5664428 0.2786525
vt 0.5294403 0.2674202
vt 0.5763257 0.277679
vt 0.5862086 0.2786525
vt 0.6119062 0.02166022
vt 0.5957121 0.2815353
vt 0.61248 0.02527638
vt 0.6044705 0.2862166
vt 0.6131493 0.0281185
vt 0.613256 0.02850125
vt 0.6121472 0.2925168
vt 0.3117039 0.05453903
vt 0.3326092 2.8871E-08
vt 0.3085881 0.06067961
vt 0 0.4156272
vt 0 1
vt 0.2839761 1
vt 0.2839761 0.4156272
vn -0.8322117 -0.5544581 0
vn -0.8322117 -0.5544581 0
vn -0.8322117 -0.5544581 0
vn -0.8322117 -0.5544581 0
vn 0 0 1
vn 0 0 1
vn 0 0 1
vn 0 0 1
vn 0 0 1
vn 0 0 1
vn 0 0 1
vn 0 0 1
vn 0 0 1
vn 0 0 1
vn 0 0 1
vn 0 0 1
vn -1 0 0
vn -1 0 0
vn -1 0 0
vn -1 0 0
vn -1 0 0
vn -1 0 0
vn -1 0 0
vn -1 0 0
vn -1 0 0
vn -1 0 0
vn -1 0 0
vn -1 1.931497E-06 0
vn -1 1.453144E-06 0
vn -1 1.932917E-06 0
vn -1 2.418767E-06 0
vn -1 0 0
vn -1 0 0
vn -1 0 0
vn -1 4.192581E-06 0
vn -1 0 0
vn -1 0 0
vn -1 0 0
vn -1 1.406386E-05 0
vn -1 0 0
vn -1 0 0
vn -1 0 0
vn -1 0 0
vn -1 0 0
vn -1 0 0
vn -1 0 0
vn -1 0 0
vn -1 0 0
vn -1 0 0
vn -1 0 0
vn -1 0 0
vn -1 -2.042226E-06 0
vn -1 -1.034416E-06 0
vn -1 2.581611E-07 0
vn -1 6.559073E-07 0
vn -1 1.558809E-06 0
vn -1 1.608577E-06 0
vn -1 0 0
vn -1 2.782799E-07 0
vn -1 0 0
vn -1 0 0
vn -1 0 0
vn -1 0 0
vn -1 0 0
vn -1 6.401324E-07 0
vn -1 -4.204021E-06 0
vn -1 -2.514428E-07 0
vn -1 -2.136759E-05 0
vn -1 0 0
vn -1 -3.068593E-06 0
vn -1 -4.868448E-06 0
vn -1 0 0
vn -1 0 0
vn -1 0 0
vn -1 0 0
vn -1 0 0
vn -1 4.832465E-07 0
vn -1 0 0
vn -1 0 0
vn -1 0 0
vn -1 6.620465E-06 0
vn -1 4.528699E-06 0
vn -1 0 0
vn -1 0 0
vn -1 0 0
vn -1 0 0
vn -1 -3.159953E-06 0
vn -1 0 0
vn -1 -2.039205E-05 0
vn -1 0 0
vn -1 0 0
vn -1 4.421709E-06 0
vn -1 4.515361E-06 0
vn -1 8.512534E-07 0
vn -1 0 0
vn -1 5.035291E-06 0
vn -1 0 0
vn -1 -2.232083E-07 0
vn -1 -4.670566E-07 0
vn -1 2.925672E-07 0
vn -1 3.14443E-07 0
vn -1 0 0
vn -1 0 0
vn -1 0 0
vn -1 0 0
vn -1 0 0
vn -1 -2.846067E-06 0
vn -1 -2.086505E-06 0
vn -1 1.688844E-06 0
vn -1 -1.259845E-06 0
vn -1 -1.203825E-06 0
vn -1 -1.95538E-06 0
vn -1 -8.394435E-07 0
vn -1 1.930619E-07 0
vn -1 4.392741E-06 0
vn -1 -3.575525E-06 0
vn -1 -2.138431E-07 0
vn -1 -3.586396E-07 0
vn -1 -3.32923E-06 0
vn -1 1.930619E-07 0
vn -1 5.37818E-07 0
vn -1 9.472184E-07 0
vn -1 -1.198066E-06 0
vn -1 0 0
vn -1 0 0
vn -1 0 0
vn -1 0 0
vn -1 0 0
vn -1 9.784393E-07 0
vn -1 7.29449E-07 0
vn -1 9.714654E-07 0
vn -1 1.224389E-06 0
vn -1 -1.224389E-06 0
vn -1 -9.71466E-07 0
vn -1 -7.294487E-07 0
vn -1 -9.784388E-07 0
vn -1 0 0
vn -1 1.270552E-07 0
vn -1 -3.839111E-07 0
vn -1 -1.110747E-07 0
vn -1 6.780951E-07 0
vn -1 7.746756E-07 0
vn -1 6.889438E-07 0
vn -1 5.929125E-07 0
vn -1 0 0
vn -1 0 0
vn -1 -1.131165E-06 0
vn -1 -1.242216E-06 0
vn -1 0 0
vn -1 1.616295E-07 0
vn -1 1.068767E-06 0
vn -1 5.944925E-07 0
vn -1 2.017305E-07 0
vn -1 6.503889E-07 0
vn -1 0 0
vn -1 0 0
vn -1 0 0
vn -1 0 0
vn -1 0 0
vn -1 0 0
vn -1 0 0
vn -1 0 0
vn -1 0 0
vn 1 0 0
vn 1 0 0
vn 1 0 0
vn -0.6615152 0.7499318 0
vn -0.6615152 0.7499318 0
vn -0.6615152 0.7499318 0
vn -0.6615152 0.7499318 0
g nha  game day quai.001_0
f 3/3/3 2/2/2 1/1/1
f 4/4/4 3/3/3 1/1/1
g nha  game day quai.001_1
f 7/7/7 6/6/6 5/5/5
f 8/8/8 7/7/7 5/5/5
f 9/9/9 8/8/8 5/5/5
f 10/10/10 9/9/9 5/5/5
f 10/10/10 11/11/11 9/9/9
f 11/11/11 12/12/12 9/9/9
f 11/11/11 13/13/13 12/12/12
f 11/11/11 14/14/14 13/13/13
f 14/14/14 15/15/15 13/13/13
f 14/14/14 16/16/16 15/15/15
g nha  game day quai.001_2
f 19/19/19 18/18/18 17/17/17
f 20/20/20 19/19/19 17/17/17
f 21/21/21 20/20/20 17/17/17
f 20/20/20 21/21/21 22/22/22
f 23/23/23 20/20/20 22/22/22
f 23/23/23 22/22/22 24/24/24
f 25/25/25 23/23/23 24/24/24
f 25/25/25 24/24/24 26/26/26
f 27/27/27 25/25/25 26/26/26
f 27/27/27 26/26/26 28/28/28
f 29/29/29 27/27/27 28/28/28
f 29/29/29 28/28/28 30/30/30
f 31/31/31 29/29/29 30/30/30
f 31/31/31 30/30/30 32/32/32
f 33/33/33 31/31/31 32/32/32
f 33/33/33 32/32/32 34/34/34
f 35/35/35 33/33/33 34/34/34
f 35/35/35 34/34/34 36/36/36
f 37/37/37 35/35/35 36/36/36
f 37/37/37 36/36/36 38/38/38
f 39/39/39 35/35/35 37/37/37
f 37/37/37 38/38/38 40/40/40
f 37/37/37 41/41/41 39/39/39
f 37/37/37 40/40/40 42/42/42
f 37/37/37 43/43/43 41/41/41
f 37/37/37 42/42/42 44/44/44
f 37/37/37 45/45/45 43/43/43
f 37/37/37 44/44/44 46/46/46
f 37/37/37 47/47/47 45/45/45
f 37/37/37 46/46/46 48/48/48
f 37/37/37 48/48/48 49/49/49
f 37/37/37 50/50/50 47/47/47
f 51/51/51 37/37/37 49/49/49
f 51/51/51 49/49/49 52/52/52
f 53/53/53 51/51/51 52/52/52
f 53/53/53 52/52/52 54/54/54
f 55/55/55 53/53/53 54/54/54
f 55/55/55 54/54/54 56/56/56
f 57/57/57 55/55/55 56/56/56
f 57/57/57 56/56/56 58/58/58
f 59/59/59 57/57/57 58/58/58
f 59/59/59 58/58/58 60/60/60
f 59/59/59 60/60/60 61/61/61
f 59/59/59 61/61/61 62/62/62
f 59/59/59 62/62/62 63/63/63
f 59/59/59 63/63/63 64/64/64
f 59/59/59 64/64/64 65/65/65
f 59/59/59 65/65/65 66/66/66
f 67/67/67 59/59/59 66/66/66
f 67/67/67 66/66/66 68/68/68
f 67/67/67 68/68/68 69/69/69
f 67/67/67 69/69/69 70/70/70
f 67/67/67 70/70/70 71/71/71
f 67/67/67 71/71/71 72/72/72
f 17/17/17 67/67/67 72/72/72
f 72/72/72 21/21/21 17/17/17
f 17/17/17 74/74/74 73/73/73
f 17/17/17 73/73/73 75/75/75
f 17/17/17 76/76/76 74/74/74
f 17/17/17 75/75/75 77/77/77
f 75/75/75 78/78/78 77/77/77
f 79/79/79 77/77/77 78/78/78
f 80/80/80 77/77/77 79/79/79
f 77/77/77 80/80/80 81/81/81
f 77/77/77 81/81/81 82/82/82
f 77/77/77 82/82/82 83/83/83
f 77/77/77 83/83/83 84/84/84
f 77/77/77 84/84/84 85/85/85
f 77/77/77 85/85/85 86/86/86
f 77/77/77 86/86/86 87/87/87
f 88/88/88 77/77/77 87/87/87
f 88/88/88 87/87/87 89/89/89
f 88/88/88 89/89/89 90/90/90
f 88/88/88 90/90/90 91/91/91
f 88/88/88 91/91/91 92/92/92
f 88/88/88 92/92/92 93/93/93
f 93/93/93 94/94/94 88/88/88
f 95/95/95 88/88/88 94/94/94
f 95/95/95 94/94/94 96/96/96
f 95/95/95 96/96/96 97/97/97
f 88/88/88 95/95/95 98/98/98
f 98/98/98 99/99/99 88/88/88
f 88/88/88 99/99/99 100/100/100
f 100/100/100 101/101/101 88/88/88
f 102/102/102 95/95/95 97/97/97
f 102/102/102 97/97/97 103/103/103
f 104/104/104 102/102/102 103/103/103
f 104/104/104 103/103/103 105/105/105
f 106/106/106 104/104/104 105/105/105
f 106/106/106 105/105/105 107/107/107
f 108/108/108 106/106/106 107/107/107
f 88/88/88 101/101/101 109/109/109
f 108/108/108 107/107/107 110/110/110
f 88/88/88 109/109/109 111/111/111
f 112/112/112 108/108/108 110/110/110
f 88/88/88 111/111/111 113/113/113
f 114/114/114 112/112/112 110/110/110
f 88/88/88 113/113/113 115/115/115
f 88/88/88 115/115/115 116/116/116
f 88/88/88 116/116/116 117/117/117
f 88/88/88 117/117/117 37/37/37
f 117/117/117 118/118/118 37/37/37
f 119/119/119 37/37/37 118/118/118
f 120/120/120 114/114/114 110/110/110
f 119/119/119 121/121/121 37/37/37
f 122/122/122 37/37/37 121/121/121
f 123/123/123 37/37/37 122/122/122
f 124/124/124 37/37/37 123/123/123
f 125/125/125 37/37/37 124/124/124
f 37/37/37 125/125/125 126/126/126
f 50/50/50 37/37/37 126/126/126
f 50/50/50 126/126/126 127/127/127
f 128/128/128 50/50/50 127/127/127
f 128/128/128 127/127/127 129/129/129
f 130/130/130 128/128/128 129/129/129
f 130/130/130 129/129/129 131/131/131
f 132/132/132 130/130/130 131/131/131
f 132/132/132 131/131/131 133/133/133
f 134/134/134 132/132/132 133/133/133
f 134/134/134 133/133/133 135/135/135
f 136/136/136 134/134/134 135/135/135
f 136/136/136 135/135/135 137/137/137
f 135/135/135 138/138/138 137/137/137
f 137/137/137 138/138/138 139/139/139
f 140/140/140 139/139/139 138/138/138
f 110/110/110 140/140/140 138/138/138
f 138/138/138 120/120/120 110/110/110
f 140/140/140 110/110/110 141/141/141
f 142/142/142 140/140/140 141/141/141
f 142/142/142 141/141/141 143/143/143
f 144/144/144 142/142/142 143/143/143
f 144/144/144 143/143/143 145/145/145
f 146/146/146 144/144/144 145/145/145
f 146/146/146 145/145/145 147/147/147
f 148/148/148 146/146/146 147/147/147
f 148/148/148 147/147/147 149/149/149
f 149/149/149 150/150/150 148/148/148
f 147/147/147 151/151/151 149/149/149
f 149/149/149 151/151/151 152/152/152
f 153/153/153 150/150/150 149/149/149
f 154/154/154 149/149/149 152/152/152
f 154/154/154 153/153/153 149/149/149
f 154/154/154 152/152/152 76/76/76
f 153/153/153 154/154/154 76/76/76
f 155/155/155 153/153/153 76/76/76
f 76/76/76 17/17/17 155/155/155
f 17/17/17 156/156/156 155/155/155
f 17/17/17 157/157/157 156/156/156
f 157/157/157 158/158/158 156/156/156
f 157/157/157 159/159/159 158/158/158
f 157/157/157 17/17/17 159/159/159
f 159/159/159 160/160/160 158/158/158
f 159/159/159 17/17/17 161/161/161
f 159/159/159 161/161/161 160/160/160
f 161/161/161 17/17/17 162/162/162
f 161/161/161 163/163/163 160/160/160
f 161/161/161 162/162/162 163/163/163
f 162/162/162 19/19/19 163/163/163
g nha  game day quai.001_3
f 166/166/166 165/165/165 164/164/164
f 169/169/169 168/168/168 167/167/167
f 170/170/170 169/169/169 167/167/167
