g Combined_Mesh_(root:_scene)_2_8
v 7.25 0 -7.490615
v -7.25 0 -7.430255
v -7.20698 0 -8.077906
v -7.25 -5 -7.430255
v 7.25 -5 -7.490615
v -7.20698 -5 -8.077906
v -5.098045 0 10.75
v 5.42294 0 10.68533
v 4.980105 0 10.75
v -5.51787 0 10.68869
v -5.921565 0 10.50711
v 5.848755 0 10.4938
v -6.29361 0 10.21224
v 6.24119 0 10.18278
v -6.619705 0 9.81543
v 6.585165 0 9.764205
v -6.88733 0 9.3319
v 6.867455 0 9.25418
v -7.08619 0 8.78025
v 7.077215 0 8.672296
v -7.20865 0 8.181669
v 7.206385 0 8.04091
v -7.25 0 7.55917
v 7.25 0 7.384295
v -7.25 0 -7.430255
v 7.25 0 -7.490615
v -7.20698 0 -8.077906
v 7.20776 0 -8.12649
v -7.079575 0 -8.700665
v 7.08267 0 -8.737926
v -6.872675 0 -9.274605
v 6.87954 0 -9.30143
v -6.59424 0 -9.77767
v 6.606165 0 -9.795345
v -6.254965 0 -10.19052
v 6.27306 0 -10.2007
v -5.86789 0 -10.4973
v 5.89302 0 -10.50189
v -5.44789 0 -10.68621
v 5.480655 0 -10.68737
v -5.0111 0 -10.75
v 5.05181 0 -10.75
v 4.980105 -5 10.75
v -5.51787 -5 10.68869
v -5.098045 -5 10.75
v 5.42294 -5 10.68533
v -5.921565 -5 10.50711
v 5.848755 -5 10.4938
v -6.29361 -5 10.21224
v 6.24119 -5 10.18278
v -6.619705 -5 9.81543
v 6.585165 -5 9.764205
v -6.88733 -5 9.3319
v 6.867455 -5 9.25418
v -7.08619 -5 8.78025
v 7.077215 -5 8.672296
v -7.20865 -5 8.181669
v 7.206385 -5 8.04091
v -7.25 -5 7.55917
v 7.25 -5 7.384295
v -7.25 -5 -7.430255
v 7.25 -5 -7.490615
v -7.20698 -5 -8.077906
v 7.20776 -5 -8.12649
v -7.079575 -5 -8.700665
v 7.08267 -5 -8.737926
v -6.872675 -5 -9.274605
v 6.87954 -5 -9.30143
v -6.59424 -5 -9.77767
v 6.606165 -5 -9.795345
v -6.254965 -5 -10.19052
v 6.27306 -5 -10.2007
v -5.86789 -5 -10.4973
v 5.89302 -5 -10.50189
v -5.44789 -5 -10.68621
v 5.480655 -5 -10.68737
v -5.0111 -5 -10.75
v 5.05181 -5 -10.75
v -7.20698 0 -8.077906
v -7.25 -5 -7.430255
v -7.20698 -5 -8.077906
v -7.25 0 -7.430255
v -7.079575 0 -8.700665
v -7.20698 -5 -8.077906
v -7.079575 -5 -8.700665
v -7.20698 0 -8.077906
v -6.872675 0 -9.274605
v -7.079575 -5 -8.700665
v -6.872675 -5 -9.274605
v -7.079575 0 -8.700665
v -6.59424 0 -9.77767
v -6.872675 -5 -9.274605
v -6.59424 -5 -9.77767
v -6.872675 0 -9.274605
v -6.254965 0 -10.19052
v -6.59424 -5 -9.77767
v -6.254965 -5 -10.19052
v -6.59424 0 -9.77767
v -5.86789 0 -10.4973
v -6.254965 -5 -10.19052
v -5.86789 -5 -10.4973
v -6.254965 0 -10.19052
v -5.44789 0 -10.68621
v -5.86789 -5 -10.4973
v -5.44789 -5 -10.68621
v -5.86789 0 -10.4973
v -5.0111 0 -10.75
v -5.44789 -5 -10.68621
v -5.0111 -5 -10.75
v -5.44789 0 -10.68621
v 7.25 -5 -7.490615
v 7.25 0 7.384295
v 7.25 0 -7.490615
v 7.25 -5 7.384295
v 7.20776 -5 -8.12649
v 7.25 0 -7.490615
v 7.20776 0 -8.12649
v 7.25 -5 -7.490615
v 7.08267 -5 -8.737926
v 7.20776 0 -8.12649
v 7.08267 0 -8.737926
v 7.20776 -5 -8.12649
v 6.87954 -5 -9.30143
v 7.08267 0 -8.737926
v 6.87954 0 -9.30143
v 7.08267 -5 -8.737926
v 6.606165 -5 -9.795345
v 6.87954 0 -9.30143
v 6.606165 0 -9.795345
v 6.87954 -5 -9.30143
v 6.27306 -5 -10.2007
v 6.606165 0 -9.795345
v 6.27306 0 -10.2007
v 6.606165 -5 -9.795345
v 5.89302 -5 -10.50189
v 6.27306 0 -10.2007
v 5.89302 0 -10.50189
v 6.27306 -5 -10.2007
v 5.480655 -5 -10.68737
v 5.89302 0 -10.50189
v 5.480655 0 -10.68737
v 5.89302 -5 -10.50189
v 5.05181 -5 -10.75
v 5.480655 0 -10.68737
v 5.05181 0 -10.75
v 5.480655 -5 -10.68737
v -5.0111 -5 -10.75
v 5.05181 0 -10.75
v -5.0111 0 -10.75
v 5.05181 -5 -10.75
v -5.51787 0 10.68869
v -5.098045 -5 10.75
v -5.51787 -5 10.68869
v -5.098045 0 10.75
v -5.921565 0 10.50711
v -5.51787 -5 10.68869
v -5.921565 -5 10.50711
v -5.51787 0 10.68869
v -6.29361 0 10.21224
v -5.921565 -5 10.50711
v -6.29361 -5 10.21224
v -5.921565 0 10.50711
v -6.619705 0 9.81543
v -6.29361 -5 10.21224
v -6.619705 -5 9.81543
v -6.29361 0 10.21224
v -6.88733 0 9.3319
v -6.619705 -5 9.81543
v -6.88733 -5 9.3319
v -6.619705 0 9.81543
v -7.08619 0 8.78025
v -6.88733 -5 9.3319
v -7.08619 -5 8.78025
v -6.88733 0 9.3319
v -7.20865 0 8.181669
v -7.08619 -5 8.78025
v -7.20865 -5 8.181669
v -7.08619 0 8.78025
v -7.25 0 7.55917
v -7.20865 -5 8.181669
v -7.25 -5 7.55917
v -7.20865 0 8.181669
v -7.25 -5 7.55917
v -7.25 0 -7.430255
v -7.25 0 7.55917
v -7.25 -5 -7.430255
v 7.206385 0 8.04091
v 7.25 -5 7.384295
v 7.206385 -5 8.04091
v 7.25 0 7.384295
v 7.077215 0 8.672296
v 7.206385 -5 8.04091
v 7.077215 -5 8.672296
v 7.206385 0 8.04091
v 6.867455 0 9.25418
v 7.077215 -5 8.672296
v 6.867455 -5 9.25418
v 7.077215 0 8.672296
v 6.585165 0 9.764205
v 6.867455 -5 9.25418
v 6.585165 -5 9.764205
v 6.867455 0 9.25418
v 6.24119 0 10.18278
v 6.585165 -5 9.764205
v 6.24119 -5 10.18278
v 6.585165 0 9.764205
v 5.848755 0 10.4938
v 6.24119 -5 10.18278
v 5.848755 -5 10.4938
v 6.24119 0 10.18278
v 5.42294 0 10.68533
v 5.848755 -5 10.4938
v 5.42294 -5 10.68533
v 5.848755 0 10.4938
v 4.980105 0 10.75
v 5.42294 -5 10.68533
v 4.980105 -5 10.75
v 5.42294 0 10.68533
v 4.980105 -5 10.75
v -5.098045 0 10.75
v 4.980105 0 10.75
v -5.098045 -5 10.75
vt 0.1628418 0.75
vt 0.1635742 0.5
vt 0.302002 0.354248
vt 0.8364258 0.5
vt 0.8369141 0.75
vt 0.6977539 0.354248
vt 0.375 0.5371094
vt 0.3747559 0.7182617
vt 0.375 0.7109375
vt 0.3747559 0.5297852
vt 0.3740234 0.5229492
vt 0.3740234 0.7255859
vt 0.3730469 0.5166016
vt 0.3728027 0.7324219
vt 0.371582 0.503418
vt 0.3713379 0.7460938
vt 0.3696289 0.4909668
vt 0.3693848 0.7592773
vt 0.3674316 0.4855957
vt 0.3669434 0.7651367
vt 0.3649902 0.4802246
vt 0.364502 0.7705078
vt 0.3378906 0.5
vt 0.3359375 0.75
vt 0.1635742 0.5
vt 0.1628418 0.75
vt 0.302002 0.354248
vt 0.1555176 0.7490234
vt 0.2995605 0.3500977
vt 0.1485596 0.7470703
vt 0.2973633 0.3469238
vt 0.1420898 0.7431641
vt 0.2954102 0.3371582
vt 0.1364746 0.7387695
vt 0.2939453 0.3276367
vt 0.1317139 0.7329102
vt 0.2927246 0.3254395
vt 0.1280518 0.7265625
vt 0.2919922 0.322998
vt 0.1257324 0.7192383
vt 0.125 0.5385742
vt 0.125 0.7119141
vt 0.625 0.7109375
vt 0.625 0.5297852
vt 0.625 0.5371094
vt 0.625 0.7182617
vt 0.6259766 0.5229492
vt 0.6259766 0.7255859
vt 0.6269531 0.5166016
vt 0.6269531 0.7324219
vt 0.628418 0.503418
vt 0.6289063 0.7460938
vt 0.6303711 0.4909668
vt 0.6308594 0.7592773
vt 0.6328125 0.4855957
vt 0.6328125 0.7651367
vt 0.6347656 0.4802246
vt 0.6352539 0.7705078
vt 0.6621094 0.5
vt 0.6640625 0.75
vt 0.8364258 0.5
vt 0.8369141 0.75
vt 0.6977539 0.354248
vt 0.8442383 0.7490234
vt 0.7001953 0.3500977
vt 0.8515625 0.7470703
vt 0.7026367 0.3469238
vt 0.8579102 0.7431641
vt 0.7045898 0.3371582
vt 0.8637695 0.7387695
vt 0.7060547 0.3276367
vt 0.8681641 0.7329102
vt 0.7075195 0.3254395
vt 0.8720703 0.7265625
vt 0.7080078 0.322998
vt 0.8740234 0.7192383
vt 0.875 0.5385742
vt 0.875 0.7119141
vt 0.302002 0.354248
vt 0.625 0.2885742
vt 0.6977539 0.354248
vt 0.375 0.2885742
vt 0.2995605 0.3500977
vt 0.6977539 0.354248
vt 0.7001953 0.3500977
vt 0.302002 0.354248
vt 0.2973633 0.3469238
vt 0.7001953 0.3500977
vt 0.7026367 0.3469238
vt 0.2995605 0.3500977
vt 0.2954102 0.3371582
vt 0.7026367 0.3469238
vt 0.7045898 0.3371582
vt 0.2973633 0.3469238
vt 0.2939453 0.3276367
vt 0.7045898 0.3371582
vt 0.7060547 0.3276367
vt 0.2954102 0.3371582
vt 0.2927246 0.3254395
vt 0.7060547 0.3276367
vt 0.7075195 0.3254395
vt 0.2939453 0.3276367
vt 0.2919922 0.322998
vt 0.7075195 0.3254395
vt 0.7080078 0.322998
vt 0.2927246 0.3254395
vt 0.375 0.2114258
vt 0.7080078 0.322998
vt 0.625 0.2114258
vt 0.2919922 0.322998
vt 0.625 0.9619141
vt 0.375 0.7890625
vt 0.375 0.9619141
vt 0.625 0.7890625
vt 0.625 0.9697266
vt 0.375 0.9619141
vt 0.375 0.9697266
vt 0.625 0.9619141
vt 0.625 0.9765625
vt 0.375 0.9697266
vt 0.375 0.9765625
vt 0.625 0.9697266
vt 0.625 0.9833984
vt 0.375 0.9765625
vt 0.375 0.9833984
vt 0.625 0.9765625
vt 0.625 1
vt 0.375 0.9833984
vt 0.375 1
vt 0.625 0.9833984
vt 0.625 0.0168457
vt 0.375 0
vt 0.375 0.0168457
vt 0.625 0
vt 0.625 0.02339172
vt 0.375 0.0168457
vt 0.375 0.02339172
vt 0.625 0.0168457
vt 0.625 0.03050232
vt 0.375 0.02339172
vt 0.375 0.03050232
vt 0.625 0.02339172
vt 0.625 0.03790283
vt 0.375 0.03050232
vt 0.375 0.03790283
vt 0.625 0.03050232
vt 0.625 0.2114258
vt 0.375 0.03790283
vt 0.375 0.2114258
vt 0.625 0.03790283
vt 0.3747559 0.5297852
vt 0.625 0.5371094
vt 0.625 0.5297852
vt 0.375 0.5371094
vt 0.3740234 0.5229492
vt 0.625 0.5297852
vt 0.6259766 0.5229492
vt 0.3747559 0.5297852
vt 0.3730469 0.5166016
vt 0.6259766 0.5229492
vt 0.6269531 0.5166016
vt 0.3740234 0.5229492
vt 0.371582 0.503418
vt 0.6269531 0.5166016
vt 0.628418 0.503418
vt 0.3730469 0.5166016
vt 0.3696289 0.4909668
vt 0.628418 0.503418
vt 0.6303711 0.4909668
vt 0.371582 0.503418
vt 0.3674316 0.4855957
vt 0.6303711 0.4909668
vt 0.6328125 0.4855957
vt 0.3696289 0.4909668
vt 0.3649902 0.4802246
vt 0.6328125 0.4855957
vt 0.6347656 0.4802246
vt 0.3674316 0.4855957
vt 0.375 0.4628906
vt 0.6347656 0.4802246
vt 0.625 0.4628906
vt 0.3649902 0.4802246
vt 0.625 0.4628906
vt 0.375 0.2885742
vt 0.375 0.4628906
vt 0.625 0.2885742
vt 0.364502 0.7705078
vt 0.625 0.7890625
vt 0.6352539 0.7705078
vt 0.375 0.7890625
vt 0.3669434 0.7651367
vt 0.6352539 0.7705078
vt 0.6328125 0.7651367
vt 0.364502 0.7705078
vt 0.3693848 0.7592773
vt 0.6328125 0.7651367
vt 0.6308594 0.7592773
vt 0.3669434 0.7651367
vt 0.3713379 0.7460938
vt 0.6308594 0.7592773
vt 0.6289063 0.7460938
vt 0.3693848 0.7592773
vt 0.3728027 0.7324219
vt 0.6289063 0.7460938
vt 0.6269531 0.7324219
vt 0.3713379 0.7460938
vt 0.3740234 0.7255859
vt 0.6269531 0.7324219
vt 0.6259766 0.7255859
vt 0.3728027 0.7324219
vt 0.3747559 0.7182617
vt 0.6259766 0.7255859
vt 0.625 0.7182617
vt 0.3740234 0.7255859
vt 0.375 0.7109375
vt 0.625 0.7182617
vt 0.625 0.7109375
vt 0.3747559 0.7182617
vt 0.625 0.7109375
vt 0.375 0.5371094
vt 0.375 0.7109375
vt 0.625 0.5371094
vn 0 1 0
vn 0 1 0
vn 0 1 0
vn 0 -1 0
vn 0 -1 0
vn 0 -1 0
vn 0 1 0
vn 0 1 0
vn 0 1 0
vn 0 1 0
vn 0 1 0
vn 0 1 0
vn 0 1 0
vn 0 1 0
vn 0 1 0
vn 0 1 0
vn 0 1 0
vn 0 1 0
vn 0 1 0
vn 0 1 0
vn 0 1 0
vn 0 1 0
vn 0 1 0
vn 0 1 0
vn 0 1 0
vn 0 1 0
vn 0 1 0
vn 0 1 0
vn 0 1 0
vn 0 1 0
vn 0 1 0
vn 0 1 0
vn 0 1 0
vn 0 1 0
vn 0 1 0
vn 0 1 0
vn 0 1 0
vn 0 1 0
vn 0 1 0
vn 0 1 0
vn 0 1 0
vn 0 1 0
vn 0 -1 0
vn 0 -1 0
vn 0 -1 0
vn 0 -1 0
vn 0 -1 0
vn 0 -1 0
vn 0 -1 0
vn 0 -1 0
vn 0 -1 0
vn 0 -1 0
vn 0 -1 0
vn 0 -1 0
vn 0 -1 0
vn 0 -1 0
vn 0 -1 0
vn 0 -1 0
vn 0 -1 0
vn 0 -1 0
vn 0 -1 0
vn 0 -1 0
vn 0 -1 0
vn 0 -1 0
vn 0 -1 0
vn 0 -1 0
vn 0 -1 0
vn 0 -1 0
vn 0 -1 0
vn 0 -1 0
vn 0 -1 0
vn 0 -1 0
vn 0 -1 0
vn 0 -1 0
vn 0 -1 0
vn 0 -1 0
vn 0 -1 0
vn 0 -1 0
vn -0.9977997 0 -0.0663002
vn -0.9977997 0 -0.0663002
vn -0.9977997 0 -0.0663002
vn -0.9977997 0 -0.0663002
vn -0.9796975 0 -0.2004815
vn -0.9796975 0 -0.2004815
vn -0.9796975 0 -0.2004815
vn -0.9796975 0 -0.2004815
vn -0.940766 0 -0.3390565
vn -0.940766 0 -0.3390565
vn -0.940766 0 -0.3390565
vn -0.940766 0 -0.3390565
vn -0.8748932 0 -0.4843159
vn -0.8748932 0 -0.4843159
vn -0.8748932 0 -0.4843159
vn -0.8748932 0 -0.4843159
vn -0.7726065 0 -0.6348853
vn -0.7726065 0 -0.6348853
vn -0.7726065 0 -0.6348853
vn -0.7726065 0 -0.6348853
vn -0.6211156 0 -0.7837189
vn -0.6211156 0 -0.7837189
vn -0.6211156 0 -0.7837189
vn -0.6211156 0 -0.7837189
vn -0.4101211 0 -0.9120311
vn -0.4101211 0 -0.9120311
vn -0.4101211 0 -0.9120311
vn -0.4101211 0 -0.9120311
vn -0.1444961 0 -0.9895054
vn -0.1444961 0 -0.9895054
vn -0.1444961 0 -0.9895054
vn -0.1444961 0 -0.9895054
vn 1 0 0
vn 1 0 0
vn 1 0 0
vn 1 0 0
vn 0.9977997 0 -0.0663002
vn 0.9977997 0 -0.0663002
vn 0.9977997 0 -0.0663002
vn 0.9977997 0 -0.0663002
vn 0.9796975 0 -0.2004815
vn 0.9796975 0 -0.2004815
vn 0.9796975 0 -0.2004815
vn 0.9796975 0 -0.2004815
vn 0.940766 0 -0.3390565
vn 0.940766 0 -0.3390565
vn 0.940766 0 -0.3390565
vn 0.940766 0 -0.3390565
vn 0.8748932 0 -0.4843159
vn 0.8748932 0 -0.4843159
vn 0.8748932 0 -0.4843159
vn 0.8748932 0 -0.4843159
vn 0.7726065 0 -0.6348853
vn 0.7726065 0 -0.6348853
vn 0.7726065 0 -0.6348853
vn 0.7726065 0 -0.6348853
vn 0.6211156 0 -0.7837189
vn 0.6211156 0 -0.7837189
vn 0.6211156 0 -0.7837189
vn 0.6211156 0 -0.7837189
vn 0.4101211 0 -0.9120311
vn 0.4101211 0 -0.9120311
vn 0.4101211 0 -0.9120311
vn 0.4101211 0 -0.9120311
vn 0.1444961 0 -0.9895054
vn 0.1444961 0 -0.9895054
vn 0.1444961 0 -0.9895054
vn 0.1444961 0 -0.9895054
vn 0 0 -1
vn 0 0 -1
vn 0 0 -1
vn 0 0 -1
vn -0.1444961 0 0.9895054
vn -0.1444961 0 0.9895054
vn -0.1444961 0 0.9895054
vn -0.1444961 0 0.9895054
vn -0.4101211 0 0.9120311
vn -0.4101211 0 0.9120311
vn -0.4101211 0 0.9120311
vn -0.4101211 0 0.9120311
vn -0.6211156 0 0.7837189
vn -0.6211156 0 0.7837189
vn -0.6211156 0 0.7837189
vn -0.6211156 0 0.7837189
vn -0.7726065 0 0.6348853
vn -0.7726065 0 0.6348853
vn -0.7726065 0 0.6348853
vn -0.7726065 0 0.6348853
vn -0.8748932 0 0.4843159
vn -0.8748932 0 0.4843159
vn -0.8748932 0 0.4843159
vn -0.8748932 0 0.4843159
vn -0.940766 0 0.3390565
vn -0.940766 0 0.3390565
vn -0.940766 0 0.3390565
vn -0.940766 0 0.3390565
vn -0.9796975 0 0.2004815
vn -0.9796975 0 0.2004815
vn -0.9796975 0 0.2004815
vn -0.9796975 0 0.2004815
vn -0.9977997 0 0.0663002
vn -0.9977997 0 0.0663002
vn -0.9977997 0 0.0663002
vn -0.9977997 0 0.0663002
vn -1 0 0
vn -1 0 0
vn -1 0 0
vn -1 0 0
vn 0.9977997 0 0.0663002
vn 0.9977997 0 0.0663002
vn 0.9977997 0 0.0663002
vn 0.9977997 0 0.0663002
vn 0.9796975 0 0.2004815
vn 0.9796975 0 0.2004815
vn 0.9796975 0 0.2004815
vn 0.9796975 0 0.2004815
vn 0.940766 0 0.3390565
vn 0.940766 0 0.3390565
vn 0.940766 0 0.3390565
vn 0.940766 0 0.3390565
vn 0.8748932 0 0.4843159
vn 0.8748932 0 0.4843159
vn 0.8748932 0 0.4843159
vn 0.8748932 0 0.4843159
vn 0.7726065 0 0.6348853
vn 0.7726065 0 0.6348853
vn 0.7726065 0 0.6348853
vn 0.7726065 0 0.6348853
vn 0.6211156 0 0.7837189
vn 0.6211156 0 0.7837189
vn 0.6211156 0 0.7837189
vn 0.6211156 0 0.7837189
vn 0.4101211 0 0.9120311
vn 0.4101211 0 0.9120311
vn 0.4101211 0 0.9120311
vn 0.4101211 0 0.9120311
vn 0.1444961 0 0.9895054
vn 0.1444961 0 0.9895054
vn 0.1444961 0 0.9895054
vn 0.1444961 0 0.9895054
vn 0 0 1
vn 0 0 1
vn 0 0 1
vn 0 0 1
g Combined_Mesh_(root:_scene)_2_8_0
f 3/3/3 2/2/2 1/1/1
f 6/6/6 5/5/5 4/4/4
f 9/9/9 8/8/8 7/7/7
f 10/10/10 7/7/7 8/8/8
f 11/11/11 10/10/10 8/8/8
f 12/12/12 11/11/11 8/8/8
f 13/13/13 11/11/11 12/12/12
f 14/14/14 13/13/13 12/12/12
f 15/15/15 13/13/13 14/14/14
f 16/16/16 15/15/15 14/14/14
f 17/17/17 15/15/15 16/16/16
f 18/18/18 17/17/17 16/16/16
f 19/19/19 17/17/17 18/18/18
f 20/20/20 19/19/19 18/18/18
f 21/21/21 19/19/19 20/20/20
f 22/22/22 21/21/21 20/20/20
f 23/23/23 21/21/21 22/22/22
f 24/24/24 23/23/23 22/22/22
f 25/25/25 23/23/23 24/24/24
f 26/26/26 25/25/25 24/24/24
f 28/28/28 27/27/27 26/26/26
f 29/29/29 27/27/27 28/28/28
f 30/30/30 29/29/29 28/28/28
f 31/31/31 29/29/29 30/30/30
f 32/32/32 31/31/31 30/30/30
f 33/33/33 31/31/31 32/32/32
f 34/34/34 33/33/33 32/32/32
f 35/35/35 33/33/33 34/34/34
f 36/36/36 35/35/35 34/34/34
f 37/37/37 35/35/35 36/36/36
f 38/38/38 37/37/37 36/36/36
f 39/39/39 37/37/37 38/38/38
f 40/40/40 39/39/39 38/38/38
f 41/41/41 39/39/39 40/40/40
f 42/42/42 41/41/41 40/40/40
f 45/45/45 44/44/44 43/43/43
f 46/46/46 43/43/43 44/44/44
f 47/47/47 46/46/46 44/44/44
f 48/48/48 46/46/46 47/47/47
f 49/49/49 48/48/48 47/47/47
f 50/50/50 48/48/48 49/49/49
f 51/51/51 50/50/50 49/49/49
f 52/52/52 50/50/50 51/51/51
f 53/53/53 52/52/52 51/51/51
f 54/54/54 52/52/52 53/53/53
f 55/55/55 54/54/54 53/53/53
f 56/56/56 54/54/54 55/55/55
f 57/57/57 56/56/56 55/55/55
f 58/58/58 56/56/56 57/57/57
f 59/59/59 58/58/58 57/57/57
f 60/60/60 58/58/58 59/59/59
f 61/61/61 60/60/60 59/59/59
f 62/62/62 60/60/60 61/61/61
f 64/64/64 62/62/62 63/63/63
f 65/65/65 64/64/64 63/63/63
f 66/66/66 64/64/64 65/65/65
f 67/67/67 66/66/66 65/65/65
f 68/68/68 66/66/66 67/67/67
f 69/69/69 68/68/68 67/67/67
f 70/70/70 68/68/68 69/69/69
f 71/71/71 70/70/70 69/69/69
f 72/72/72 70/70/70 71/71/71
f 73/73/73 72/72/72 71/71/71
f 74/74/74 72/72/72 73/73/73
f 75/75/75 74/74/74 73/73/73
f 76/76/76 74/74/74 75/75/75
f 77/77/77 76/76/76 75/75/75
f 78/78/78 76/76/76 77/77/77
f 81/81/81 80/80/80 79/79/79
f 79/79/79 80/80/80 82/82/82
f 85/85/85 84/84/84 83/83/83
f 83/83/83 84/84/84 86/86/86
f 89/89/89 88/88/88 87/87/87
f 87/87/87 88/88/88 90/90/90
f 93/93/93 92/92/92 91/91/91
f 91/91/91 92/92/92 94/94/94
f 97/97/97 96/96/96 95/95/95
f 95/95/95 96/96/96 98/98/98
f 101/101/101 100/100/100 99/99/99
f 99/99/99 100/100/100 102/102/102
f 105/105/105 104/104/104 103/103/103
f 103/103/103 104/104/104 106/106/106
f 109/109/109 108/108/108 107/107/107
f 107/107/107 108/108/108 110/110/110
f 113/113/113 112/112/112 111/111/111
f 111/111/111 112/112/112 114/114/114
f 117/117/117 116/116/116 115/115/115
f 115/115/115 116/116/116 118/118/118
f 121/121/121 120/120/120 119/119/119
f 119/119/119 120/120/120 122/122/122
f 125/125/125 124/124/124 123/123/123
f 123/123/123 124/124/124 126/126/126
f 129/129/129 128/128/128 127/127/127
f 127/127/127 128/128/128 130/130/130
f 133/133/133 132/132/132 131/131/131
f 131/131/131 132/132/132 134/134/134
f 137/137/137 136/136/136 135/135/135
f 135/135/135 136/136/136 138/138/138
f 141/141/141 140/140/140 139/139/139
f 139/139/139 140/140/140 142/142/142
f 145/145/145 144/144/144 143/143/143
f 143/143/143 144/144/144 146/146/146
f 149/149/149 148/148/148 147/147/147
f 147/147/147 148/148/148 150/150/150
f 153/153/153 152/152/152 151/151/151
f 151/151/151 152/152/152 154/154/154
f 157/157/157 156/156/156 155/155/155
f 155/155/155 156/156/156 158/158/158
f 161/161/161 160/160/160 159/159/159
f 159/159/159 160/160/160 162/162/162
f 165/165/165 164/164/164 163/163/163
f 163/163/163 164/164/164 166/166/166
f 169/169/169 168/168/168 167/167/167
f 167/167/167 168/168/168 170/170/170
f 173/173/173 172/172/172 171/171/171
f 171/171/171 172/172/172 174/174/174
f 177/177/177 176/176/176 175/175/175
f 175/175/175 176/176/176 178/178/178
f 181/181/181 180/180/180 179/179/179
f 179/179/179 180/180/180 182/182/182
f 185/185/185 184/184/184 183/183/183
f 183/183/183 184/184/184 186/186/186
f 189/189/189 188/188/188 187/187/187
f 187/187/187 188/188/188 190/190/190
f 193/193/193 192/192/192 191/191/191
f 191/191/191 192/192/192 194/194/194
f 197/197/197 196/196/196 195/195/195
f 195/195/195 196/196/196 198/198/198
f 201/201/201 200/200/200 199/199/199
f 199/199/199 200/200/200 202/202/202
f 205/205/205 204/204/204 203/203/203
f 203/203/203 204/204/204 206/206/206
f 209/209/209 208/208/208 207/207/207
f 207/207/207 208/208/208 210/210/210
f 213/213/213 212/212/212 211/211/211
f 211/211/211 212/212/212 214/214/214
f 217/217/217 216/216/216 215/215/215
f 215/215/215 216/216/216 218/218/218
f 221/221/221 220/220/220 219/219/219
f 219/219/219 220/220/220 222/222/222
